<svg width="120" height="120" viewBox="0 0 120 120" fill="none" xmlns="http://www.w3.org/2000/svg">
<circle cx="60" cy="60" r="60" fill="#00A7A7"/>
<g clip-path="url(#clip0)">
<path d="M86.0901 50.6136C86.1073 50.3036 86.1151 50.0029 86.1151 49.7084C86.1151 38.2916 77.168 29.3491 65.7449 29.3491C57.8125 29.3491 51.083 33.5353 47.7237 40.4105C46.0026 39.3268 43.9275 38.7457 41.7021 38.7457C36.0061 38.7457 31.654 43.0791 31.3047 48.9442C24.3168 51.3074 20.3389 56.8514 20.3389 64.3217C20.3389 72.6706 27.1326 79.4644 35.4831 79.4644H46.6635C50.8825 89.1382 58.3716 93.0205 58.7084 93.2461L59.4914 93.5593L60.2745 93.2461C60.7192 93.0237 68.0267 88.897 72.2301 79.4644H84.7025C92.3905 79.4644 98.644 73.2109 98.644 65.5245C98.644 58.1184 92.9841 51.5549 86.0901 50.6136ZM59.4914 89.9573C56.6724 88.3912 47.4324 81.6569 46.9626 66.4657C51.0345 65.5261 53.3836 64.2732 55.1063 63.4901C56.829 62.5505 57.7687 62.0806 59.4914 62.0806C61.2141 62.0806 62.1538 62.5505 63.8765 63.4901C65.7558 64.2732 68.105 65.5261 72.0202 66.4657C71.5504 81.0305 62.1538 88.2345 59.4914 89.9573Z" fill="#F9FFFE"/>
</g>
<defs>
<clipPath id="clip0">
<rect width="78.3051" height="78.3051" fill="white" transform="translate(20.3389 15.2543)"/>
</clipPath>
</defs>
</svg>
