<svg width="121" height="120" viewBox="0 0 121 120" fill="none" xmlns="http://www.w3.org/2000/svg">
<circle cx="60.5" cy="60" r="60" fill="#00A7A7"/>
<circle cx="59.8922" cy="58.1752" r="52.3111" fill="white"/>
<path d="M61.0083 5.08472C30.9589 5.08472 6.60156 29.4421 6.60156 59.4915C6.60156 89.5409 30.9589 113.898 61.0083 113.898C91.0577 113.898 115.415 89.5409 115.415 59.4915C115.415 29.4421 91.0577 5.08472 61.0083 5.08472ZM61.0083 19.2778C72.7527 19.2778 82.298 28.823 82.298 40.5674V50.0294H68.1049V40.5674C68.1049 36.6588 64.917 33.4709 61.0083 33.4709C57.0997 33.4709 53.9118 36.6588 53.9118 40.5674V50.0294H39.7187V40.5674C39.7187 28.823 49.2639 19.2778 61.0083 19.2778ZM61.0083 24.0088C51.8605 24.0088 44.4498 31.4195 44.4498 40.5674V45.2984H49.1808V40.5674C49.1808 34.0345 54.4755 28.7398 61.0083 28.7398C67.5412 28.7398 72.8359 34.0345 72.8359 40.5674V45.2984H77.5669V40.5674C77.5669 31.4195 70.1562 24.0088 61.0083 24.0088ZM37.7875 54.7605H84.2292C87.0844 54.7605 89.3945 57.1814 89.3945 60.166V87.2031C89.3945 90.1877 87.0844 92.6087 84.2292 92.6087H37.7875C34.9323 92.6087 32.6222 90.1877 32.6222 87.2031V60.166C32.6222 57.1814 34.9323 54.7605 37.7875 54.7605ZM42.0842 61.857C40.7814 61.857 39.7187 62.9196 39.7187 64.2225V83.1466C39.7187 84.4495 40.7814 85.5121 42.0842 85.5121C43.3871 85.5121 44.4498 84.4495 44.4498 83.1466V64.2225C44.4498 62.9196 43.3871 61.857 42.0842 61.857ZM61.0083 61.857C58.3933 61.857 56.2773 63.973 56.2773 66.588C56.2773 68.279 57.1829 69.8406 58.6428 70.6815V83.1466H63.3739V70.6815C64.8338 69.8314 65.7394 68.279 65.7394 66.588C65.7394 63.973 63.6233 61.857 61.0083 61.857Z" fill="#00A7A7"/>
</svg>
