<svg width="121" height="120" viewBox="0 0 121 120" fill="none" xmlns="http://www.w3.org/2000/svg">
<circle cx="60.5" cy="60" r="60" fill="#00A7A7"/>
<path d="M59.8302 17.7096C49.2089 17.884 38.661 22.008 30.6037 30.104C18.2079 42.427 14.7084 60.8017 21.7084 76.8433C22.073 77.6454 22.8743 78.1564 23.7493 78.1564C24.0409 78.1564 24.3334 78.0826 24.6251 78.0097C25.7189 77.4993 26.229 76.2609 25.7915 75.1671C19.4477 60.7296 22.5823 44.2493 33.6656 33.166C47.3011 19.5306 68.8852 18.5106 83.7602 30.0314L79.8951 30.4686C78.7284 30.6145 77.8537 31.7088 77.9995 32.8754C78.1454 33.9692 79.0933 34.771 80.187 34.771H80.479L89.229 33.7499C90.3957 33.604 91.1975 32.5838 91.1245 31.4171V31.2704V30.9785L90.6873 23.177C90.6144 21.9374 89.5927 21.0618 88.3531 21.1347C87.1136 21.2076 86.2394 22.2293 86.3123 23.4689L86.4576 26.4582C78.6304 20.4768 69.2019 17.5558 59.8302 17.7096ZM60.4995 33.0207C51.2391 33.0207 43.7287 40.5311 43.7287 49.7915C43.7287 59.052 51.2391 66.5624 60.4995 66.5624C69.76 66.5624 77.2704 59.052 77.2704 49.7915C77.2704 40.5311 69.76 33.0207 60.4995 33.0207ZM60.4995 37.3957C67.3537 37.3957 72.8954 42.9374 72.8954 49.7915C72.8954 56.6457 67.3537 62.1874 60.4995 62.1874C53.6454 62.1874 48.1037 56.6457 48.1037 49.7915C48.1037 42.9374 53.6454 37.3957 60.4995 37.3957ZM97.1772 41.6454C96.8889 41.6522 96.593 41.7157 96.3013 41.8433C95.2076 42.3538 94.6972 43.5933 95.2076 44.76C101.551 59.1975 98.4897 75.7502 87.3334 86.9064C73.698 100.469 52.1138 101.489 37.2388 89.9683L41.104 89.5311C42.2707 89.3853 43.1454 88.291 42.9995 87.1243C42.8537 85.9576 41.7594 85.0829 40.5927 85.2288L31.8427 86.2499C30.6761 86.3957 29.8743 87.416 29.9472 88.5826V88.7293V89.0213L30.3844 96.8228C30.4573 97.9895 31.4052 98.865 32.5719 98.865H32.7186C33.9582 98.7921 34.8323 97.7704 34.7594 96.5308L34.6141 93.5415C42.1975 99.302 51.385 102.292 60.4995 102.292C71.3641 102.292 82.1558 98.1353 90.3954 89.8957C102.864 77.427 106.291 59.0517 99.218 42.9371C98.8352 42.1168 98.0419 41.6249 97.1772 41.6454ZM60.4995 72.3957C54.5204 72.3957 48.6136 74.0002 43.5094 77.0627C42.4886 77.646 42.124 79.0311 42.7802 80.052C43.3636 81.0728 44.7501 81.4374 45.7709 80.7811C50.2189 78.1561 55.3225 76.7707 60.4995 76.7707C67.6454 76.7707 74.4998 79.3954 79.7498 84.135C80.1873 84.4996 80.6977 84.7189 81.2082 84.7189C81.7915 84.7189 82.3743 84.5002 82.8118 83.9898C83.6138 83.1147 83.5415 81.7285 82.6665 80.9264C76.6144 75.3847 68.7391 72.3957 60.4995 72.3957Z" fill="#F9FFFE"/>
<ellipse cx="63.5301" cy="61.8182" rx="30.303" ry="30.303" fill="#00A7A7"/>
<path d="M70.8749 53.5841L63.5213 46.2305C63.3086 46.0178 63.0213 45.899 62.7215 45.899H50.8427C49.5926 45.899 48.5801 46.9116 48.5801 48.1617V73.0506C48.5801 74.3007 49.5926 75.3132 50.8427 75.3132H68.9437C70.1938 75.3132 71.2063 74.3007 71.2063 73.0506V54.3839C71.2063 54.0841 71.0875 53.7967 70.8749 53.5841ZM63.2871 54.9496C62.6627 54.9496 62.1558 54.4427 62.1558 53.8182V48.0531L69.0523 54.9496H63.2871Z" fill="#F9FFFE"/>
</svg>
